<svg width="260" height="260" viewBox="0 0 260 260" fill="none" xmlns="http://www.w3.org/2000/svg">
<rect width="260" height="260" rx="72" fill="#879BFF"/>
<path d="M50 41C50 32.1634 57.1634 25 66 25H92.9343C97.3526 25 100.934 28.5817 100.934 33V101.678C100.934 129.808 78.1302 152.613 50 152.613V152.613V41Z" fill="white"/>
<path d="M163.774 153.72C163.774 135.099 148.632 119.948 130.002 119.948C111.372 119.948 96.2305 135.099 96.2305 153.72C96.2305 169.397 106.982 182.572 121.488 186.361C121.658 186.439 121.84 186.486 122.027 186.5C127.265 187.822 132.75 187.822 137.988 186.5C138.17 186.486 138.348 186.44 138.514 186.365C153.022 182.574 163.774 169.397 163.774 153.72ZM99.4332 153.72C99.4332 136.864 113.152 123.15 130.004 123.15C146.856 123.15 160.571 136.869 160.571 153.72C160.569 158.727 159.338 163.657 156.985 168.076C154.632 172.496 151.229 176.27 147.076 179.066V166.397L149.513 163.957C150.296 164.349 151.158 164.555 152.033 164.56C153.173 164.56 154.286 164.222 155.233 163.588C156.181 162.955 156.919 162.055 157.354 161.003C157.79 159.95 157.903 158.792 157.681 157.674C157.458 156.557 156.908 155.531 156.102 154.726C155.296 153.921 154.269 153.373 153.152 153.152C152.034 152.931 150.876 153.046 149.824 153.483C148.772 153.92 147.873 154.66 147.241 155.608C146.609 156.556 146.273 157.67 146.275 158.809C146.279 159.865 146.577 160.899 147.135 161.795L144.334 164.598C144.185 164.747 144.067 164.923 143.987 165.118C143.906 165.312 143.865 165.52 143.865 165.73V180.924C142.436 181.662 140.951 182.285 139.424 182.787V153.825L143.778 149.47C143.856 149.379 143.923 149.279 143.977 149.172C144.833 149.669 145.805 149.933 146.795 149.939C147.932 149.938 149.043 149.599 149.987 148.966C150.931 148.333 151.667 147.435 152.101 146.384C152.535 145.333 152.648 144.177 152.425 143.062C152.202 141.947 151.654 140.923 150.849 140.12C150.045 139.317 149.02 138.77 147.905 138.549C146.79 138.328 145.634 138.442 144.584 138.877C143.534 139.313 142.636 140.05 142.005 140.995C141.373 141.941 141.036 143.052 141.036 144.189C141.042 145.18 141.307 146.151 141.805 147.007C141.703 147.061 141.607 147.125 141.519 147.199L136.695 152.026C136.396 152.326 136.227 152.733 136.226 153.157V183.644C134.703 183.948 133.158 184.135 131.606 184.203V141.378C132.938 140.992 134.087 140.138 134.84 138.973C135.593 137.808 135.9 136.41 135.705 135.037C135.51 133.664 134.826 132.407 133.779 131.498C132.731 130.588 131.391 130.088 130.004 130.088C128.617 130.088 127.276 130.588 126.229 131.498C125.181 132.407 124.497 133.664 124.302 135.037C124.108 136.41 124.415 137.808 125.168 138.973C125.921 140.138 127.069 140.992 128.402 141.378V184.207C126.848 184.139 125.303 183.952 123.778 183.648V153.161C123.777 152.736 123.609 152.33 123.309 152.029L118.485 147.199C118.393 147.121 118.293 147.054 118.185 146.999C118.683 146.143 118.949 145.171 118.954 144.181C118.956 143.041 118.62 141.927 117.988 140.979C117.356 140.031 116.458 139.291 115.405 138.854C114.353 138.417 113.195 138.302 112.078 138.523C110.96 138.744 109.933 139.292 109.127 140.097C108.321 140.902 107.772 141.928 107.549 143.046C107.326 144.163 107.439 145.321 107.875 146.374C108.311 147.427 109.049 148.327 109.996 148.96C110.943 149.593 112.057 149.931 113.196 149.931C114.186 149.925 115.158 149.66 116.014 149.164C116.068 149.271 116.135 149.371 116.212 149.462L120.567 153.816V182.779C119.04 182.277 117.556 181.654 116.129 180.916V165.733C116.128 165.309 115.959 164.903 115.66 164.602L112.862 161.799C113.42 160.902 113.718 159.869 113.723 158.813C113.724 157.673 113.388 156.559 112.756 155.611C112.125 154.663 111.226 153.924 110.174 153.486C109.122 153.049 107.964 152.934 106.846 153.155C105.728 153.376 104.702 153.924 103.895 154.729C103.089 155.534 102.54 156.56 102.317 157.678C102.094 158.795 102.208 159.953 102.643 161.006C103.079 162.059 103.817 162.959 104.764 163.592C105.711 164.225 106.825 164.563 107.964 164.563C108.84 164.558 109.702 164.35 110.484 163.957L112.925 166.397V179.066C108.772 176.27 105.37 172.496 103.017 168.076C100.665 163.656 99.4341 158.726 99.4332 153.72ZM149.479 158.813C149.479 158.31 149.628 157.819 149.907 157.401C150.187 156.983 150.583 156.658 151.048 156.466C151.512 156.273 152.023 156.223 152.515 156.321C153.008 156.419 153.461 156.661 153.816 157.016C154.171 157.372 154.413 157.824 154.511 158.317C154.609 158.81 154.559 159.321 154.367 159.785C154.175 160.249 153.849 160.646 153.431 160.925C153.013 161.204 152.522 161.353 152.02 161.353C151.347 161.351 150.702 161.082 150.226 160.606C149.75 160.13 149.482 159.486 149.479 158.813ZM144.248 144.181C144.248 143.678 144.397 143.187 144.676 142.769C144.955 142.351 145.352 142.026 145.816 141.833C146.28 141.641 146.791 141.591 147.284 141.689C147.776 141.787 148.229 142.029 148.584 142.384C148.94 142.739 149.182 143.192 149.28 143.685C149.378 144.178 149.327 144.689 149.135 145.153C148.943 145.617 148.617 146.014 148.199 146.293C147.782 146.572 147.291 146.721 146.788 146.721C146.116 146.717 145.473 146.448 144.998 145.972C144.524 145.496 144.25 144.853 144.248 144.181ZM130.002 138.432C129.5 138.432 129.009 138.283 128.592 138.005C128.174 137.726 127.848 137.329 127.656 136.866C127.463 136.402 127.413 135.892 127.51 135.399C127.607 134.906 127.848 134.454 128.203 134.098C128.557 133.742 129.009 133.5 129.501 133.401C129.994 133.302 130.504 133.351 130.968 133.542C131.433 133.733 131.83 134.057 132.11 134.474C132.391 134.891 132.541 135.381 132.543 135.883C132.542 136.558 132.275 137.204 131.799 137.682C131.322 138.16 130.677 138.429 130.002 138.432ZM113.201 146.731C112.699 146.731 112.207 146.582 111.79 146.303C111.372 146.024 111.046 145.627 110.854 145.163C110.662 144.699 110.611 144.188 110.709 143.695C110.807 143.202 111.049 142.75 111.405 142.394C111.76 142.039 112.213 141.797 112.705 141.699C113.198 141.601 113.709 141.651 114.173 141.844C114.637 142.036 115.034 142.362 115.313 142.779C115.592 143.197 115.741 143.688 115.741 144.191C115.738 144.863 115.47 145.507 114.994 145.983C114.519 146.458 113.873 146.728 113.201 146.731ZM107.969 161.362C107.467 161.362 106.976 161.213 106.558 160.934C106.14 160.654 105.814 160.258 105.622 159.793C105.43 159.329 105.38 158.818 105.478 158.326C105.576 157.833 105.818 157.38 106.173 157.025C106.528 156.669 106.981 156.427 107.474 156.329C107.966 156.231 108.477 156.282 108.941 156.474C109.406 156.666 109.802 156.992 110.082 157.41C110.361 157.828 110.51 158.319 110.51 158.821C110.509 159.494 110.242 160.14 109.766 160.616C109.29 161.092 108.642 161.361 107.969 161.362Z" fill="#72E7D7"/>
<path d="M130 74.5503C174.183 74.5503 210 110.368 210 154.55C210 198.733 174.183 234.55 130 234.55C85.8172 234.55 50 198.733 50 154.55C50 110.368 85.8172 74.5503 130 74.5503ZM129.999 124.931C113.641 124.931 100.38 138.192 100.38 154.55C100.38 170.908 113.641 184.169 129.999 184.169C146.357 184.169 159.619 170.909 159.619 154.55C159.619 138.192 146.357 124.931 129.999 124.931Z" fill="white"/>
</svg>
